<svg xmlns="http://www.w3.org/2000/svg" width="60" height="60" style="enable-background:new 0 0 60 60"><style>.st0{fill-rule:evenodd;clip-rule:evenodd;fill:#f6f6f6}</style><path class="st0" d="M0 0h3L0 3zM0 6l6-6h3L0 9zM0 12L12 0h3L0 15zM0 18L18 0h3L0 21zM0 24L24 0h3L0 27zM0 30L30 0h3L0 33zM0 36L36 0h3L0 39zM0 42L42 0h3L0 45zM0 48L48 0h3L0 51zM0 54L54 0h3L0 57zM0 60L60 0v3L3 60zM6 60L60 6v3L9 60zM12 60l48-48v3L15 60zM18 60l42-42v3L21 60zM24 60l36-36v3L27 60zM30 60l30-30v3L33 60zM36 60l24-24v3L39 60zM42 60l18-18v3L45 60zM48 60l12-12v3l-9 9zM54 60l6-6v3l-3 3z"/></svg>